<svg width="512" height="512" viewBox="0 0 512 512" xmlns="http://www.w3.org/2000/svg">
  <rect width="512" height="512" fill="#111827" rx="64"/>
  <g transform="translate(256, 256)">
    <!-- Grid pattern representing time tracking -->
    <g stroke="#3b82f6" stroke-width="12" fill="none" opacity="0.8">
      <!-- Time grid lines -->
      <line x1="-120" y1="-120" x2="120" y2="-120" stroke-dasharray="8,4"/>
      <line x1="-120" y1="-60" x2="120" y2="-60" stroke-dasharray="8,4"/>
      <line x1="-120" y1="0" x2="120" y2="0" stroke-dasharray="8,4"/>
      <line x1="-120" y1="60" x2="120" y2="60" stroke-dasharray="8,4"/>
      <line x1="-120" y1="120" x2="120" y2="120" stroke-dasharray="8,4"/>
      
      <line x1="-120" y1="-120" x2="-120" y2="120" stroke-dasharray="8,4"/>
      <line x1="-60" y1="-120" x2="-60" y2="120" stroke-dasharray="8,4"/>
      <line x1="0" y1="-120" x2="0" y2="120" stroke-dasharray="8,4"/>
      <line x1="60" y1="-120" x2="60" y2="120" stroke-dasharray="8,4"/>
      <line x1="120" y1="-120" x2="120" y2="120" stroke-dasharray="8,4"/>
    </g>
    
    <!-- Center time indicator -->
    <circle cx="0" cy="0" r="20" fill="#3b82f6"/>
    <circle cx="0" cy="0" r="8" fill="#ffffff"/>
    
    <!-- Corner indicators for time tracking -->
    <circle cx="-80" cy="-80" r="8" fill="#10b981" opacity="0.8"/>
    <circle cx="80" cy="-80" r="8" fill="#f59e0b" opacity="0.8"/>
    <circle cx="-80" cy="80" r="8" fill="#ef4444" opacity="0.8"/>
    <circle cx="80" cy="80" r="8" fill="#8b5cf6" opacity="0.8"/>
  </g>
</svg>