<svg width="255" height="255" xmlns="http://www.w3.org/2000/svg" class="lucide lucide-brain-icon lucide-brain" stroke-linejoin="round" stroke-linecap="round" stroke-width="2" stroke="currentColor" fill="none">

 <g>
  <title>Layer 1</title>
  <g transform="rotate(10.3118 131.253 128.664)" stroke="null" id="svg_9">
   <path stroke="null" id="svg_1" d="m131.25289,191.59592l0,-136.30142"/>
   <path stroke="null" id="svg_2" d="m162.61549,139.17229a43.59401,43.7213 0 0 1 -31.3626,-41.9389a43.59401,43.7213 0 0 1 -31.3626,41.9389"/>
   <path stroke="null" id="svg_3" d="m189.7755,71.02158a31.3626,31.45417 0 1 0 -58.52261,-15.72709a31.3626,31.45417 0 1 0 -58.52261,15.72709"/>
   <path stroke="null" id="svg_4" d="m193.94672,56.60508a41.8168,41.9389 0 0 1 26.40731,60.49686"/>
   <path stroke="null" id="svg_5" d="m193.97808,191.59592a41.8168,41.9389 0 0 0 20.9084,-78.25799"/>
   <path stroke="null" id="svg_6" d="m214.54149,186.17531a41.8168,41.9389 0 1 1 -83.2886,5.4206a41.8168,41.9389 0 1 1 -83.2886,-5.4206"/>
   <path stroke="null" id="svg_7" d="m68.5277,191.59592a41.8168,41.9389 0 0 1 -20.9084,-78.25799"/>
   <path stroke="null" id="svg_8" d="m68.55906,56.60508a41.8168,41.9389 0 0 0 -26.40731,60.49686"/>
  </g>
  <g transform="rotate(10.3118 129.529 127.515)" stroke="null" id="svg_28">
   <path stroke="null" id="svg_20" d="m129.52875,190.44649l0,-136.30143"/>
   <path stroke="null" id="svg_21" d="m160.89135,138.02286a43.59401,43.7213 0 0 1 -31.3626,-41.9389a43.59401,43.7213 0 0 1 -31.3626,41.9389"/>
   <path stroke="null" id="svg_22" d="m188.05136,69.87215a31.3626,31.45417 0 1 0 -58.52261,-15.72709a31.3626,31.45417 0 1 0 -58.5226,15.72709"/>
   <path stroke="null" id="svg_23" d="m192.22258,55.45565a41.8168,41.9389 0 0 1 26.40731,60.49687"/>
   <path stroke="null" id="svg_24" d="m192.25394,190.44649a41.8168,41.9389 0 0 0 20.9084,-78.25799"/>
   <path stroke="null" id="svg_25" d="m212.81735,185.02588a41.8168,41.9389 0 1 1 -83.2886,5.42061a41.8168,41.9389 0 1 1 -83.2886,-5.42061"/>
   <path stroke="null" id="svg_26" d="m66.80356,190.44649a41.8168,41.9389 0 0 1 -20.9084,-78.25799"/>
   <path stroke="null" id="svg_27" d="m66.83492,55.45565a41.8168,41.9389 0 0 0 -26.40731,60.49687"/>
  </g>
  <g transform="rotate(10.3118 129.529 127.515)" stroke-width="8" stroke="null" id="svg_37">
   <path stroke="null" id="svg_29" d="m129.52875,190.44648l0,-136.30142"/>
   <path stroke="null" id="svg_30" d="m160.89134,138.02286a43.59401,43.7213 0 0 1 -31.36259,-41.9389a43.59401,43.7213 0 0 1 -31.3626,41.9389"/>
   <path stroke="null" id="svg_31" d="m188.05135,69.87215a31.3626,31.45417 0 1 0 -58.5226,-15.72709a31.3626,31.45417 0 1 0 -58.52261,15.72709"/>
   <path stroke="null" id="svg_32" d="m192.22258,55.45565a41.8168,41.9389 0 0 1 26.4073,60.49686"/>
   <path stroke="null" id="svg_33" d="m192.25394,190.44648a41.8168,41.9389 0 0 0 20.9084,-78.25798"/>
   <path stroke="null" id="svg_34" d="m212.81735,185.02588a41.8168,41.9389 0 1 1 -83.2886,5.4206a41.8168,41.9389 0 1 1 -83.2886,-5.4206"/>
   <path stroke="null" id="svg_35" d="m66.80355,190.44648a41.8168,41.9389 0 0 1 -20.90839,-78.25798"/>
   <path stroke="null" id="svg_36" d="m66.83492,55.45565a41.8168,41.9389 0 0 0 -26.40731,60.49686"/>
  </g>
 </g>
</svg>